<svg version="1.2" xmlns="http://www.w3.org/2000/svg" viewBox="0 0 1076 1067" width="1076" height="1067">
	<title>Vector File</title>
	<style>
		.s0 { fill: #374a6a } 
	</style>
	<g id="g1">
		<g id="group-R5">
			<path id="path28" class="s0" d="m1002.7 617.1v17.4h-233v-34.8h110.8v-87.4h76.1v17.4h69.7v-69.7h-69.7v17.4h-76.1-44.4v-34.8h44.4v-150.1c0-65.8-53.3-119.1-119.1-119.1h-38.5v-96.1h17.4v-69.7h-69.7v69.7h17.4v96.1 154.5h-34.8v-154.5h-87.5v-50.1h17.4v-69.7h-69.6v69.7h17.4v50.1 88.1h-34.9v-88.1h-208.9c-65.8 0-119.2 53.3-119.2 119.1v10.4h-89.8v-17.5h-69.7v69.7h69.7v-17.4h89.8 177.6v34.8h-177.6v87.5h-43.7v-17.4h-69.7v69.7h69.7v-17.5h43.7 111.2v34.9h-111.2v237.2c0 65.8 53.4 119.1 119.2 119.1h17.2v111.2h-17.4v69.7h69.7v-69.7h-17.5v-111.2-127.7h34.9v127.7h87.4v65.2h-17.4v69.6h69.7v-69.6h-17.4v-65.2-61.2h34.8v61.2h133.5c37.6 0 57.7-44.4 32.8-72.6l-113.3-128.5 96.3-96.3 127.3 113.4c28.2 25.1 72.8 5.1 72.8-32.6h122.2v17.4h69.7v-69.7zm-353.5-161.2c-26.4 26.4-28.1 68.2-5 96.6l5.3 5.2-0.3 0.2-96 96c-16.4-16.4-43.1-16.4-59.5 0q-1.2 1.2-2.2 2.4c-14.2 16.6-13.4 41.5 2.2 57.1l-43.7 43.8-131.7-131.7 43.7-43.8c16.4 16.5 43.1 16.5 59.5 0 16.5-16.4 16.4-43 0-59.4l96.3-96.3c72.7-72.7 190.6-72.7 263.4 0l-29.9 29.9c-28.2-28.2-73.9-28.2-102.1 0z"/>
		</g>
	</g>
</svg>